<mxfile host="app.diagrams.net" modified="2023-04-07T13:40:38.768Z" agent="Mozilla/5.0 (X11; Linux x86_64; rv:109.0) Gecko/20100101 Firefox/111.0" etag="wbeRpD6hTkzGwk7ePq6I" version="21.1.4" type="github">
  <diagram name="Pagina-1" id="-E2HQ6KpQesaJob6Ah_3">
    <mxGraphModel dx="755" dy="477" grid="1" gridSize="10" guides="1" tooltips="1" connect="1" arrows="1" fold="1" page="1" pageScale="1" pageWidth="827" pageHeight="1169" math="0" shadow="0">
      <root>
        <mxCell id="0" />
        <mxCell id="1" parent="0" />
        <mxCell id="nBvacR5jPzjU03QSo2Wc-1" value="" style="whiteSpace=wrap;html=1;aspect=fixed;" vertex="1" parent="1">
          <mxGeometry x="201" y="240" width="40" height="40" as="geometry" />
        </mxCell>
        <mxCell id="nBvacR5jPzjU03QSo2Wc-2" value="" style="whiteSpace=wrap;html=1;aspect=fixed;fillColor=#ffe6cc;strokeColor=#d79b00;" vertex="1" parent="1">
          <mxGeometry x="241" y="240" width="40" height="40" as="geometry" />
        </mxCell>
        <mxCell id="nBvacR5jPzjU03QSo2Wc-3" value="" style="whiteSpace=wrap;html=1;aspect=fixed;fillColor=#f8cecc;strokeColor=#b85450;" vertex="1" parent="1">
          <mxGeometry x="281" y="240" width="40" height="40" as="geometry" />
        </mxCell>
        <mxCell id="nBvacR5jPzjU03QSo2Wc-4" value="" style="whiteSpace=wrap;html=1;aspect=fixed;fillColor=#f8cecc;strokeColor=#b85450;" vertex="1" parent="1">
          <mxGeometry x="321" y="240" width="40" height="40" as="geometry" />
        </mxCell>
        <mxCell id="nBvacR5jPzjU03QSo2Wc-5" value="" style="whiteSpace=wrap;html=1;aspect=fixed;fillColor=#f8cecc;strokeColor=#b85450;" vertex="1" parent="1">
          <mxGeometry x="361" y="240" width="40" height="40" as="geometry" />
        </mxCell>
        <mxCell id="nBvacR5jPzjU03QSo2Wc-6" value="" style="whiteSpace=wrap;html=1;aspect=fixed;fillColor=#ffe6cc;strokeColor=#d79b00;" vertex="1" parent="1">
          <mxGeometry x="401" y="240" width="40" height="40" as="geometry" />
        </mxCell>
        <mxCell id="nBvacR5jPzjU03QSo2Wc-7" value="" style="whiteSpace=wrap;html=1;aspect=fixed;" vertex="1" parent="1">
          <mxGeometry x="441" y="240" width="40" height="40" as="geometry" />
        </mxCell>
        <mxCell id="nBvacR5jPzjU03QSo2Wc-8" value="" style="whiteSpace=wrap;html=1;aspect=fixed;" vertex="1" parent="1">
          <mxGeometry x="481" y="240" width="40" height="40" as="geometry" />
        </mxCell>
        <mxCell id="nBvacR5jPzjU03QSo2Wc-9" value="" style="whiteSpace=wrap;html=1;aspect=fixed;" vertex="1" parent="1">
          <mxGeometry x="161" y="240" width="40" height="40" as="geometry" />
        </mxCell>
        <mxCell id="nBvacR5jPzjU03QSo2Wc-10" value="" style="whiteSpace=wrap;html=1;aspect=fixed;" vertex="1" parent="1">
          <mxGeometry x="121" y="240" width="40" height="40" as="geometry" />
        </mxCell>
        <mxCell id="nBvacR5jPzjU03QSo2Wc-11" value="" style="whiteSpace=wrap;html=1;aspect=fixed;" vertex="1" parent="1">
          <mxGeometry x="521" y="240" width="40" height="40" as="geometry" />
        </mxCell>
        <mxCell id="nBvacR5jPzjU03QSo2Wc-12" value="" style="whiteSpace=wrap;html=1;aspect=fixed;fillColor=#dae8fc;strokeColor=#6c8ebf;" vertex="1" parent="1">
          <mxGeometry x="201" y="280" width="40" height="40" as="geometry" />
        </mxCell>
        <mxCell id="nBvacR5jPzjU03QSo2Wc-13" value="" style="whiteSpace=wrap;html=1;aspect=fixed;fillColor=#f8cecc;strokeColor=#b85450;" vertex="1" parent="1">
          <mxGeometry x="241" y="280" width="40" height="40" as="geometry" />
        </mxCell>
        <mxCell id="nBvacR5jPzjU03QSo2Wc-14" value="" style="whiteSpace=wrap;html=1;aspect=fixed;fillColor=#f8cecc;strokeColor=#b85450;" vertex="1" parent="1">
          <mxGeometry x="281" y="280" width="40" height="40" as="geometry" />
        </mxCell>
        <mxCell id="nBvacR5jPzjU03QSo2Wc-15" value="" style="whiteSpace=wrap;html=1;aspect=fixed;fillColor=#f8cecc;strokeColor=#b85450;" vertex="1" parent="1">
          <mxGeometry x="321" y="280" width="40" height="40" as="geometry" />
        </mxCell>
        <mxCell id="nBvacR5jPzjU03QSo2Wc-16" value="" style="whiteSpace=wrap;html=1;aspect=fixed;fillColor=#f8cecc;strokeColor=#b85450;" vertex="1" parent="1">
          <mxGeometry x="361" y="280" width="40" height="40" as="geometry" />
        </mxCell>
        <mxCell id="nBvacR5jPzjU03QSo2Wc-17" value="" style="whiteSpace=wrap;html=1;aspect=fixed;fillColor=#f8cecc;strokeColor=#b85450;" vertex="1" parent="1">
          <mxGeometry x="401" y="280" width="40" height="40" as="geometry" />
        </mxCell>
        <mxCell id="nBvacR5jPzjU03QSo2Wc-18" value="" style="whiteSpace=wrap;html=1;aspect=fixed;fillColor=#f8cecc;strokeColor=#b85450;" vertex="1" parent="1">
          <mxGeometry x="441" y="280" width="40" height="40" as="geometry" />
        </mxCell>
        <mxCell id="nBvacR5jPzjU03QSo2Wc-19" value="" style="whiteSpace=wrap;html=1;aspect=fixed;fillColor=#ffe6cc;strokeColor=#d79b00;" vertex="1" parent="1">
          <mxGeometry x="481" y="280" width="40" height="40" as="geometry" />
        </mxCell>
        <mxCell id="nBvacR5jPzjU03QSo2Wc-20" value="" style="whiteSpace=wrap;html=1;aspect=fixed;" vertex="1" parent="1">
          <mxGeometry x="161" y="280" width="40" height="40" as="geometry" />
        </mxCell>
        <mxCell id="nBvacR5jPzjU03QSo2Wc-21" value="" style="whiteSpace=wrap;html=1;aspect=fixed;" vertex="1" parent="1">
          <mxGeometry x="121" y="280" width="40" height="40" as="geometry" />
        </mxCell>
        <mxCell id="nBvacR5jPzjU03QSo2Wc-22" value="" style="whiteSpace=wrap;html=1;aspect=fixed;" vertex="1" parent="1">
          <mxGeometry x="521" y="280" width="40" height="40" as="geometry" />
        </mxCell>
        <mxCell id="nBvacR5jPzjU03QSo2Wc-23" value="" style="whiteSpace=wrap;html=1;aspect=fixed;" vertex="1" parent="1">
          <mxGeometry x="201" y="200" width="40" height="40" as="geometry" />
        </mxCell>
        <mxCell id="nBvacR5jPzjU03QSo2Wc-24" value="" style="whiteSpace=wrap;html=1;aspect=fixed;" vertex="1" parent="1">
          <mxGeometry x="241" y="200" width="40" height="40" as="geometry" />
        </mxCell>
        <mxCell id="nBvacR5jPzjU03QSo2Wc-25" value="" style="whiteSpace=wrap;html=1;aspect=fixed;fillColor=#f8cecc;strokeColor=#b85450;" vertex="1" parent="1">
          <mxGeometry x="281" y="200" width="40" height="40" as="geometry" />
        </mxCell>
        <mxCell id="nBvacR5jPzjU03QSo2Wc-26" value="" style="whiteSpace=wrap;html=1;aspect=fixed;fillColor=#f8cecc;strokeColor=#b85450;" vertex="1" parent="1">
          <mxGeometry x="321" y="200" width="40" height="40" as="geometry" />
        </mxCell>
        <mxCell id="nBvacR5jPzjU03QSo2Wc-27" value="" style="whiteSpace=wrap;html=1;aspect=fixed;fillColor=#dae8fc;strokeColor=#6c8ebf;" vertex="1" parent="1">
          <mxGeometry x="361" y="200" width="40" height="40" as="geometry" />
        </mxCell>
        <mxCell id="nBvacR5jPzjU03QSo2Wc-28" value="" style="whiteSpace=wrap;html=1;aspect=fixed;" vertex="1" parent="1">
          <mxGeometry x="401" y="200" width="40" height="40" as="geometry" />
        </mxCell>
        <mxCell id="nBvacR5jPzjU03QSo2Wc-29" value="" style="whiteSpace=wrap;html=1;aspect=fixed;" vertex="1" parent="1">
          <mxGeometry x="441" y="200" width="40" height="40" as="geometry" />
        </mxCell>
        <mxCell id="nBvacR5jPzjU03QSo2Wc-30" value="" style="whiteSpace=wrap;html=1;aspect=fixed;" vertex="1" parent="1">
          <mxGeometry x="481" y="200" width="40" height="40" as="geometry" />
        </mxCell>
        <mxCell id="nBvacR5jPzjU03QSo2Wc-31" value="" style="whiteSpace=wrap;html=1;aspect=fixed;" vertex="1" parent="1">
          <mxGeometry x="161" y="200" width="40" height="40" as="geometry" />
        </mxCell>
        <mxCell id="nBvacR5jPzjU03QSo2Wc-32" value="" style="whiteSpace=wrap;html=1;aspect=fixed;" vertex="1" parent="1">
          <mxGeometry x="121" y="200" width="40" height="40" as="geometry" />
        </mxCell>
        <mxCell id="nBvacR5jPzjU03QSo2Wc-33" value="" style="whiteSpace=wrap;html=1;aspect=fixed;" vertex="1" parent="1">
          <mxGeometry x="521" y="200" width="40" height="40" as="geometry" />
        </mxCell>
        <mxCell id="nBvacR5jPzjU03QSo2Wc-34" value="" style="whiteSpace=wrap;html=1;aspect=fixed;fillColor=#f8cecc;strokeColor=#b85450;" vertex="1" parent="1">
          <mxGeometry x="201" y="320" width="40" height="40" as="geometry" />
        </mxCell>
        <mxCell id="nBvacR5jPzjU03QSo2Wc-35" value="" style="whiteSpace=wrap;html=1;aspect=fixed;fillColor=#f8cecc;strokeColor=#b85450;" vertex="1" parent="1">
          <mxGeometry x="241" y="320" width="40" height="40" as="geometry" />
        </mxCell>
        <mxCell id="nBvacR5jPzjU03QSo2Wc-36" value="" style="whiteSpace=wrap;html=1;aspect=fixed;fillColor=#f8cecc;strokeColor=#b85450;" vertex="1" parent="1">
          <mxGeometry x="281" y="320" width="40" height="40" as="geometry" />
        </mxCell>
        <mxCell id="nBvacR5jPzjU03QSo2Wc-37" value="" style="whiteSpace=wrap;html=1;aspect=fixed;fillColor=#f8cecc;strokeColor=#b85450;" vertex="1" parent="1">
          <mxGeometry x="321" y="320" width="40" height="40" as="geometry" />
        </mxCell>
        <mxCell id="nBvacR5jPzjU03QSo2Wc-38" value="" style="whiteSpace=wrap;html=1;aspect=fixed;fillColor=#f8cecc;strokeColor=#b85450;" vertex="1" parent="1">
          <mxGeometry x="361" y="320" width="40" height="40" as="geometry" />
        </mxCell>
        <mxCell id="nBvacR5jPzjU03QSo2Wc-39" value="" style="whiteSpace=wrap;html=1;aspect=fixed;fillColor=#f8cecc;strokeColor=#b85450;" vertex="1" parent="1">
          <mxGeometry x="401" y="320" width="40" height="40" as="geometry" />
        </mxCell>
        <mxCell id="nBvacR5jPzjU03QSo2Wc-40" value="" style="whiteSpace=wrap;html=1;aspect=fixed;fillColor=#f8cecc;strokeColor=#b85450;" vertex="1" parent="1">
          <mxGeometry x="441" y="320" width="40" height="40" as="geometry" />
        </mxCell>
        <mxCell id="nBvacR5jPzjU03QSo2Wc-41" value="" style="whiteSpace=wrap;html=1;aspect=fixed;fillColor=#dae8fc;strokeColor=#6c8ebf;" vertex="1" parent="1">
          <mxGeometry x="481" y="320" width="40" height="40" as="geometry" />
        </mxCell>
        <mxCell id="nBvacR5jPzjU03QSo2Wc-42" value="" style="whiteSpace=wrap;html=1;aspect=fixed;fillColor=#dae8fc;strokeColor=#6c8ebf;" vertex="1" parent="1">
          <mxGeometry x="161" y="320" width="40" height="40" as="geometry" />
        </mxCell>
        <mxCell id="nBvacR5jPzjU03QSo2Wc-43" value="" style="whiteSpace=wrap;html=1;aspect=fixed;" vertex="1" parent="1">
          <mxGeometry x="121" y="320" width="40" height="40" as="geometry" />
        </mxCell>
        <mxCell id="nBvacR5jPzjU03QSo2Wc-44" value="" style="whiteSpace=wrap;html=1;aspect=fixed;" vertex="1" parent="1">
          <mxGeometry x="521" y="320" width="40" height="40" as="geometry" />
        </mxCell>
        <mxCell id="nBvacR5jPzjU03QSo2Wc-45" value="" style="whiteSpace=wrap;html=1;aspect=fixed;fillColor=#f8cecc;strokeColor=#b85450;" vertex="1" parent="1">
          <mxGeometry x="201" y="360" width="40" height="40" as="geometry" />
        </mxCell>
        <mxCell id="nBvacR5jPzjU03QSo2Wc-46" value="" style="whiteSpace=wrap;html=1;aspect=fixed;fillColor=#f8cecc;strokeColor=#b85450;" vertex="1" parent="1">
          <mxGeometry x="241" y="360" width="40" height="40" as="geometry" />
        </mxCell>
        <mxCell id="nBvacR5jPzjU03QSo2Wc-47" value="" style="whiteSpace=wrap;html=1;aspect=fixed;fillColor=#f8cecc;strokeColor=#b85450;" vertex="1" parent="1">
          <mxGeometry x="281" y="360" width="40" height="40" as="geometry" />
        </mxCell>
        <mxCell id="nBvacR5jPzjU03QSo2Wc-48" value="" style="whiteSpace=wrap;html=1;aspect=fixed;fillColor=#f8cecc;strokeColor=#b85450;" vertex="1" parent="1">
          <mxGeometry x="321" y="360" width="40" height="40" as="geometry" />
        </mxCell>
        <mxCell id="nBvacR5jPzjU03QSo2Wc-49" value="" style="whiteSpace=wrap;html=1;aspect=fixed;fillColor=#f8cecc;strokeColor=#b85450;" vertex="1" parent="1">
          <mxGeometry x="361" y="360" width="40" height="40" as="geometry" />
        </mxCell>
        <mxCell id="nBvacR5jPzjU03QSo2Wc-50" value="" style="whiteSpace=wrap;html=1;aspect=fixed;fillColor=#f8cecc;strokeColor=#b85450;" vertex="1" parent="1">
          <mxGeometry x="401" y="360" width="40" height="40" as="geometry" />
        </mxCell>
        <mxCell id="nBvacR5jPzjU03QSo2Wc-51" value="" style="whiteSpace=wrap;html=1;aspect=fixed;fillColor=#dae8fc;strokeColor=#6c8ebf;" vertex="1" parent="1">
          <mxGeometry x="441" y="360" width="40" height="40" as="geometry" />
        </mxCell>
        <mxCell id="nBvacR5jPzjU03QSo2Wc-52" value="" style="whiteSpace=wrap;html=1;aspect=fixed;" vertex="1" parent="1">
          <mxGeometry x="481" y="360" width="40" height="40" as="geometry" />
        </mxCell>
        <mxCell id="nBvacR5jPzjU03QSo2Wc-53" value="" style="whiteSpace=wrap;html=1;aspect=fixed;fillColor=#ffe6cc;strokeColor=#d79b00;" vertex="1" parent="1">
          <mxGeometry x="161" y="360" width="40" height="40" as="geometry" />
        </mxCell>
        <mxCell id="nBvacR5jPzjU03QSo2Wc-54" value="" style="whiteSpace=wrap;html=1;aspect=fixed;" vertex="1" parent="1">
          <mxGeometry x="121" y="360" width="40" height="40" as="geometry" />
        </mxCell>
        <mxCell id="nBvacR5jPzjU03QSo2Wc-55" value="" style="whiteSpace=wrap;html=1;aspect=fixed;" vertex="1" parent="1">
          <mxGeometry x="521" y="360" width="40" height="40" as="geometry" />
        </mxCell>
        <mxCell id="nBvacR5jPzjU03QSo2Wc-56" value="" style="whiteSpace=wrap;html=1;aspect=fixed;" vertex="1" parent="1">
          <mxGeometry x="201" y="160" width="40" height="40" as="geometry" />
        </mxCell>
        <mxCell id="nBvacR5jPzjU03QSo2Wc-57" value="" style="whiteSpace=wrap;html=1;aspect=fixed;" vertex="1" parent="1">
          <mxGeometry x="241" y="160" width="40" height="40" as="geometry" />
        </mxCell>
        <mxCell id="nBvacR5jPzjU03QSo2Wc-58" value="" style="whiteSpace=wrap;html=1;aspect=fixed;fillColor=#ffe6cc;strokeColor=#d79b00;" vertex="1" parent="1">
          <mxGeometry x="281" y="160" width="40" height="40" as="geometry" />
        </mxCell>
        <mxCell id="nBvacR5jPzjU03QSo2Wc-59" value="" style="whiteSpace=wrap;html=1;aspect=fixed;fillColor=#dae8fc;strokeColor=#6c8ebf;" vertex="1" parent="1">
          <mxGeometry x="321" y="160" width="40" height="40" as="geometry" />
        </mxCell>
        <mxCell id="nBvacR5jPzjU03QSo2Wc-60" value="" style="whiteSpace=wrap;html=1;aspect=fixed;" vertex="1" parent="1">
          <mxGeometry x="361" y="160" width="40" height="40" as="geometry" />
        </mxCell>
        <mxCell id="nBvacR5jPzjU03QSo2Wc-61" value="" style="whiteSpace=wrap;html=1;aspect=fixed;" vertex="1" parent="1">
          <mxGeometry x="401" y="160" width="40" height="40" as="geometry" />
        </mxCell>
        <mxCell id="nBvacR5jPzjU03QSo2Wc-62" value="" style="whiteSpace=wrap;html=1;aspect=fixed;" vertex="1" parent="1">
          <mxGeometry x="441" y="160" width="40" height="40" as="geometry" />
        </mxCell>
        <mxCell id="nBvacR5jPzjU03QSo2Wc-63" value="" style="whiteSpace=wrap;html=1;aspect=fixed;" vertex="1" parent="1">
          <mxGeometry x="481" y="160" width="40" height="40" as="geometry" />
        </mxCell>
        <mxCell id="nBvacR5jPzjU03QSo2Wc-64" value="" style="whiteSpace=wrap;html=1;aspect=fixed;" vertex="1" parent="1">
          <mxGeometry x="161" y="160" width="40" height="40" as="geometry" />
        </mxCell>
        <mxCell id="nBvacR5jPzjU03QSo2Wc-65" value="" style="whiteSpace=wrap;html=1;aspect=fixed;" vertex="1" parent="1">
          <mxGeometry x="121" y="160" width="40" height="40" as="geometry" />
        </mxCell>
        <mxCell id="nBvacR5jPzjU03QSo2Wc-66" value="" style="whiteSpace=wrap;html=1;aspect=fixed;" vertex="1" parent="1">
          <mxGeometry x="521" y="160" width="40" height="40" as="geometry" />
        </mxCell>
        <mxCell id="nBvacR5jPzjU03QSo2Wc-67" value="" style="whiteSpace=wrap;html=1;aspect=fixed;" vertex="1" parent="1">
          <mxGeometry x="201" y="120" width="40" height="40" as="geometry" />
        </mxCell>
        <mxCell id="nBvacR5jPzjU03QSo2Wc-68" value="" style="whiteSpace=wrap;html=1;aspect=fixed;" vertex="1" parent="1">
          <mxGeometry x="241" y="120" width="40" height="40" as="geometry" />
        </mxCell>
        <mxCell id="nBvacR5jPzjU03QSo2Wc-69" value="" style="whiteSpace=wrap;html=1;aspect=fixed;" vertex="1" parent="1">
          <mxGeometry x="281" y="120" width="40" height="40" as="geometry" />
        </mxCell>
        <mxCell id="nBvacR5jPzjU03QSo2Wc-70" value="" style="whiteSpace=wrap;html=1;aspect=fixed;" vertex="1" parent="1">
          <mxGeometry x="321" y="120" width="40" height="40" as="geometry" />
        </mxCell>
        <mxCell id="nBvacR5jPzjU03QSo2Wc-71" value="" style="whiteSpace=wrap;html=1;aspect=fixed;" vertex="1" parent="1">
          <mxGeometry x="361" y="120" width="40" height="40" as="geometry" />
        </mxCell>
        <mxCell id="nBvacR5jPzjU03QSo2Wc-72" value="" style="whiteSpace=wrap;html=1;aspect=fixed;" vertex="1" parent="1">
          <mxGeometry x="401" y="120" width="40" height="40" as="geometry" />
        </mxCell>
        <mxCell id="nBvacR5jPzjU03QSo2Wc-73" value="" style="whiteSpace=wrap;html=1;aspect=fixed;" vertex="1" parent="1">
          <mxGeometry x="441" y="120" width="40" height="40" as="geometry" />
        </mxCell>
        <mxCell id="nBvacR5jPzjU03QSo2Wc-74" value="" style="whiteSpace=wrap;html=1;aspect=fixed;" vertex="1" parent="1">
          <mxGeometry x="481" y="120" width="40" height="40" as="geometry" />
        </mxCell>
        <mxCell id="nBvacR5jPzjU03QSo2Wc-75" value="" style="whiteSpace=wrap;html=1;aspect=fixed;" vertex="1" parent="1">
          <mxGeometry x="161" y="120" width="40" height="40" as="geometry" />
        </mxCell>
        <mxCell id="nBvacR5jPzjU03QSo2Wc-76" value="0,0" style="whiteSpace=wrap;html=1;aspect=fixed;" vertex="1" parent="1">
          <mxGeometry x="121" y="120" width="40" height="40" as="geometry" />
        </mxCell>
        <mxCell id="nBvacR5jPzjU03QSo2Wc-77" value="0,10" style="whiteSpace=wrap;html=1;aspect=fixed;" vertex="1" parent="1">
          <mxGeometry x="521" y="120" width="40" height="40" as="geometry" />
        </mxCell>
        <mxCell id="nBvacR5jPzjU03QSo2Wc-78" value="" style="whiteSpace=wrap;html=1;aspect=fixed;" vertex="1" parent="1">
          <mxGeometry x="201" y="400" width="40" height="40" as="geometry" />
        </mxCell>
        <mxCell id="nBvacR5jPzjU03QSo2Wc-79" value="" style="whiteSpace=wrap;html=1;aspect=fixed;fillColor=#ffe6cc;strokeColor=#d79b00;" vertex="1" parent="1">
          <mxGeometry x="241" y="400" width="40" height="40" as="geometry" />
        </mxCell>
        <mxCell id="nBvacR5jPzjU03QSo2Wc-80" value="" style="whiteSpace=wrap;html=1;aspect=fixed;fillColor=#f8cecc;strokeColor=#b85450;" vertex="1" parent="1">
          <mxGeometry x="281" y="400" width="40" height="40" as="geometry" />
        </mxCell>
        <mxCell id="nBvacR5jPzjU03QSo2Wc-81" value="" style="whiteSpace=wrap;html=1;aspect=fixed;fillColor=#f8cecc;strokeColor=#b85450;" vertex="1" parent="1">
          <mxGeometry x="321" y="400" width="40" height="40" as="geometry" />
        </mxCell>
        <mxCell id="nBvacR5jPzjU03QSo2Wc-82" value="" style="whiteSpace=wrap;html=1;aspect=fixed;fillColor=#f8cecc;strokeColor=#b85450;" vertex="1" parent="1">
          <mxGeometry x="361" y="400" width="40" height="40" as="geometry" />
        </mxCell>
        <mxCell id="nBvacR5jPzjU03QSo2Wc-83" value="" style="whiteSpace=wrap;html=1;aspect=fixed;fillColor=#ffe6cc;strokeColor=#d79b00;" vertex="1" parent="1">
          <mxGeometry x="401" y="400" width="40" height="40" as="geometry" />
        </mxCell>
        <mxCell id="nBvacR5jPzjU03QSo2Wc-84" value="" style="whiteSpace=wrap;html=1;aspect=fixed;" vertex="1" parent="1">
          <mxGeometry x="441" y="400" width="40" height="40" as="geometry" />
        </mxCell>
        <mxCell id="nBvacR5jPzjU03QSo2Wc-85" value="" style="whiteSpace=wrap;html=1;aspect=fixed;" vertex="1" parent="1">
          <mxGeometry x="481" y="400" width="40" height="40" as="geometry" />
        </mxCell>
        <mxCell id="nBvacR5jPzjU03QSo2Wc-86" value="" style="whiteSpace=wrap;html=1;aspect=fixed;" vertex="1" parent="1">
          <mxGeometry x="161" y="400" width="40" height="40" as="geometry" />
        </mxCell>
        <mxCell id="nBvacR5jPzjU03QSo2Wc-87" value="" style="whiteSpace=wrap;html=1;aspect=fixed;" vertex="1" parent="1">
          <mxGeometry x="121" y="400" width="40" height="40" as="geometry" />
        </mxCell>
        <mxCell id="nBvacR5jPzjU03QSo2Wc-88" value="" style="whiteSpace=wrap;html=1;aspect=fixed;" vertex="1" parent="1">
          <mxGeometry x="521" y="400" width="40" height="40" as="geometry" />
        </mxCell>
        <mxCell id="nBvacR5jPzjU03QSo2Wc-89" value="" style="whiteSpace=wrap;html=1;aspect=fixed;" vertex="1" parent="1">
          <mxGeometry x="201" y="440" width="40" height="40" as="geometry" />
        </mxCell>
        <mxCell id="nBvacR5jPzjU03QSo2Wc-90" value="" style="whiteSpace=wrap;html=1;aspect=fixed;" vertex="1" parent="1">
          <mxGeometry x="241" y="440" width="40" height="40" as="geometry" />
        </mxCell>
        <mxCell id="nBvacR5jPzjU03QSo2Wc-91" value="" style="whiteSpace=wrap;html=1;aspect=fixed;fillColor=#dae8fc;strokeColor=#6c8ebf;" vertex="1" parent="1">
          <mxGeometry x="281" y="440" width="40" height="40" as="geometry" />
        </mxCell>
        <mxCell id="nBvacR5jPzjU03QSo2Wc-92" value="" style="whiteSpace=wrap;html=1;aspect=fixed;fillColor=#f8cecc;strokeColor=#b85450;" vertex="1" parent="1">
          <mxGeometry x="321" y="440" width="40" height="40" as="geometry" />
        </mxCell>
        <mxCell id="nBvacR5jPzjU03QSo2Wc-93" value="" style="whiteSpace=wrap;html=1;aspect=fixed;fillColor=#f8cecc;strokeColor=#b85450;" vertex="1" parent="1">
          <mxGeometry x="361" y="440" width="40" height="40" as="geometry" />
        </mxCell>
        <mxCell id="nBvacR5jPzjU03QSo2Wc-94" value="" style="whiteSpace=wrap;html=1;aspect=fixed;" vertex="1" parent="1">
          <mxGeometry x="401" y="440" width="40" height="40" as="geometry" />
        </mxCell>
        <mxCell id="nBvacR5jPzjU03QSo2Wc-95" value="" style="whiteSpace=wrap;html=1;aspect=fixed;" vertex="1" parent="1">
          <mxGeometry x="441" y="440" width="40" height="40" as="geometry" />
        </mxCell>
        <mxCell id="nBvacR5jPzjU03QSo2Wc-96" value="" style="whiteSpace=wrap;html=1;aspect=fixed;" vertex="1" parent="1">
          <mxGeometry x="481" y="440" width="40" height="40" as="geometry" />
        </mxCell>
        <mxCell id="nBvacR5jPzjU03QSo2Wc-97" value="" style="whiteSpace=wrap;html=1;aspect=fixed;" vertex="1" parent="1">
          <mxGeometry x="161" y="440" width="40" height="40" as="geometry" />
        </mxCell>
        <mxCell id="nBvacR5jPzjU03QSo2Wc-98" value="" style="whiteSpace=wrap;html=1;aspect=fixed;" vertex="1" parent="1">
          <mxGeometry x="121" y="440" width="40" height="40" as="geometry" />
        </mxCell>
        <mxCell id="nBvacR5jPzjU03QSo2Wc-99" value="" style="whiteSpace=wrap;html=1;aspect=fixed;" vertex="1" parent="1">
          <mxGeometry x="521" y="440" width="40" height="40" as="geometry" />
        </mxCell>
        <mxCell id="nBvacR5jPzjU03QSo2Wc-100" value="" style="whiteSpace=wrap;html=1;aspect=fixed;" vertex="1" parent="1">
          <mxGeometry x="201" y="480" width="40" height="40" as="geometry" />
        </mxCell>
        <mxCell id="nBvacR5jPzjU03QSo2Wc-101" value="" style="whiteSpace=wrap;html=1;aspect=fixed;" vertex="1" parent="1">
          <mxGeometry x="241" y="480" width="40" height="40" as="geometry" />
        </mxCell>
        <mxCell id="nBvacR5jPzjU03QSo2Wc-102" value="" style="whiteSpace=wrap;html=1;aspect=fixed;" vertex="1" parent="1">
          <mxGeometry x="281" y="480" width="40" height="40" as="geometry" />
        </mxCell>
        <mxCell id="nBvacR5jPzjU03QSo2Wc-103" value="" style="whiteSpace=wrap;html=1;aspect=fixed;fillColor=#dae8fc;strokeColor=#6c8ebf;" vertex="1" parent="1">
          <mxGeometry x="321" y="480" width="40" height="40" as="geometry" />
        </mxCell>
        <mxCell id="nBvacR5jPzjU03QSo2Wc-104" value="" style="whiteSpace=wrap;html=1;aspect=fixed;fillColor=#ffe6cc;strokeColor=#d79b00;" vertex="1" parent="1">
          <mxGeometry x="361" y="480" width="40" height="40" as="geometry" />
        </mxCell>
        <mxCell id="nBvacR5jPzjU03QSo2Wc-105" value="" style="whiteSpace=wrap;html=1;aspect=fixed;" vertex="1" parent="1">
          <mxGeometry x="401" y="480" width="40" height="40" as="geometry" />
        </mxCell>
        <mxCell id="nBvacR5jPzjU03QSo2Wc-106" value="" style="whiteSpace=wrap;html=1;aspect=fixed;" vertex="1" parent="1">
          <mxGeometry x="441" y="480" width="40" height="40" as="geometry" />
        </mxCell>
        <mxCell id="nBvacR5jPzjU03QSo2Wc-107" value="" style="whiteSpace=wrap;html=1;aspect=fixed;" vertex="1" parent="1">
          <mxGeometry x="481" y="480" width="40" height="40" as="geometry" />
        </mxCell>
        <mxCell id="nBvacR5jPzjU03QSo2Wc-108" value="" style="whiteSpace=wrap;html=1;aspect=fixed;" vertex="1" parent="1">
          <mxGeometry x="161" y="480" width="40" height="40" as="geometry" />
        </mxCell>
        <mxCell id="nBvacR5jPzjU03QSo2Wc-109" value="" style="whiteSpace=wrap;html=1;aspect=fixed;" vertex="1" parent="1">
          <mxGeometry x="121" y="480" width="40" height="40" as="geometry" />
        </mxCell>
        <mxCell id="nBvacR5jPzjU03QSo2Wc-110" value="" style="whiteSpace=wrap;html=1;aspect=fixed;" vertex="1" parent="1">
          <mxGeometry x="521" y="480" width="40" height="40" as="geometry" />
        </mxCell>
        <mxCell id="nBvacR5jPzjU03QSo2Wc-111" value="" style="whiteSpace=wrap;html=1;aspect=fixed;" vertex="1" parent="1">
          <mxGeometry x="201" y="520" width="40" height="40" as="geometry" />
        </mxCell>
        <mxCell id="nBvacR5jPzjU03QSo2Wc-112" value="" style="whiteSpace=wrap;html=1;aspect=fixed;" vertex="1" parent="1">
          <mxGeometry x="241" y="520" width="40" height="40" as="geometry" />
        </mxCell>
        <mxCell id="nBvacR5jPzjU03QSo2Wc-113" value="" style="whiteSpace=wrap;html=1;aspect=fixed;" vertex="1" parent="1">
          <mxGeometry x="281" y="520" width="40" height="40" as="geometry" />
        </mxCell>
        <mxCell id="nBvacR5jPzjU03QSo2Wc-114" value="" style="whiteSpace=wrap;html=1;aspect=fixed;" vertex="1" parent="1">
          <mxGeometry x="321" y="520" width="40" height="40" as="geometry" />
        </mxCell>
        <mxCell id="nBvacR5jPzjU03QSo2Wc-115" value="" style="whiteSpace=wrap;html=1;aspect=fixed;" vertex="1" parent="1">
          <mxGeometry x="361" y="520" width="40" height="40" as="geometry" />
        </mxCell>
        <mxCell id="nBvacR5jPzjU03QSo2Wc-116" value="" style="whiteSpace=wrap;html=1;aspect=fixed;" vertex="1" parent="1">
          <mxGeometry x="401" y="520" width="40" height="40" as="geometry" />
        </mxCell>
        <mxCell id="nBvacR5jPzjU03QSo2Wc-117" value="" style="whiteSpace=wrap;html=1;aspect=fixed;" vertex="1" parent="1">
          <mxGeometry x="441" y="520" width="40" height="40" as="geometry" />
        </mxCell>
        <mxCell id="nBvacR5jPzjU03QSo2Wc-118" value="" style="whiteSpace=wrap;html=1;aspect=fixed;" vertex="1" parent="1">
          <mxGeometry x="481" y="520" width="40" height="40" as="geometry" />
        </mxCell>
        <mxCell id="nBvacR5jPzjU03QSo2Wc-119" value="" style="whiteSpace=wrap;html=1;aspect=fixed;" vertex="1" parent="1">
          <mxGeometry x="161" y="520" width="40" height="40" as="geometry" />
        </mxCell>
        <mxCell id="nBvacR5jPzjU03QSo2Wc-120" value="10,0" style="whiteSpace=wrap;html=1;aspect=fixed;" vertex="1" parent="1">
          <mxGeometry x="121" y="520" width="40" height="40" as="geometry" />
        </mxCell>
        <mxCell id="nBvacR5jPzjU03QSo2Wc-121" value="10,10" style="whiteSpace=wrap;html=1;aspect=fixed;" vertex="1" parent="1">
          <mxGeometry x="521" y="520" width="40" height="40" as="geometry" />
        </mxCell>
        <mxCell id="nBvacR5jPzjU03QSo2Wc-122" value="" style="whiteSpace=wrap;html=1;aspect=fixed;fillColor=#ffe6cc;strokeColor=#d79b00;" vertex="1" parent="1">
          <mxGeometry x="600" y="320" width="40" height="40" as="geometry" />
        </mxCell>
        <mxCell id="nBvacR5jPzjU03QSo2Wc-123" value="" style="whiteSpace=wrap;html=1;aspect=fixed;fillColor=#f8cecc;strokeColor=#b85450;" vertex="1" parent="1">
          <mxGeometry x="600" y="240" width="40" height="40" as="geometry" />
        </mxCell>
        <mxCell id="nBvacR5jPzjU03QSo2Wc-124" value="" style="whiteSpace=wrap;html=1;aspect=fixed;fillColor=#dae8fc;strokeColor=#6c8ebf;" vertex="1" parent="1">
          <mxGeometry x="600" y="400" width="40" height="40" as="geometry" />
        </mxCell>
        <mxCell id="nBvacR5jPzjU03QSo2Wc-125" value="&lt;div&gt;2, 3, 4 Giocatori&lt;/div&gt;" style="text;html=1;align=center;verticalAlign=middle;resizable=0;points=[];autosize=1;strokeColor=none;fillColor=none;" vertex="1" parent="1">
          <mxGeometry x="650" y="245" width="110" height="30" as="geometry" />
        </mxCell>
        <mxCell id="nBvacR5jPzjU03QSo2Wc-126" value="3 Giocatori" style="text;html=1;align=center;verticalAlign=middle;resizable=0;points=[];autosize=1;strokeColor=none;fillColor=none;" vertex="1" parent="1">
          <mxGeometry x="650" y="325" width="80" height="30" as="geometry" />
        </mxCell>
        <mxCell id="nBvacR5jPzjU03QSo2Wc-128" value="&lt;div&gt;4 Giocatori&lt;/div&gt;" style="text;html=1;align=center;verticalAlign=middle;resizable=0;points=[];autosize=1;strokeColor=none;fillColor=none;" vertex="1" parent="1">
          <mxGeometry x="650" y="405" width="80" height="30" as="geometry" />
        </mxCell>
      </root>
    </mxGraphModel>
  </diagram>
</mxfile>
